<svg xmlns="http://www.w3.org/2000/svg" width="29.5" height="29.469" viewBox="0 0 29.5 29.469">
  <path class="cls-1" d="M1073.63,48.138h-1.05a1.155,1.155,0,0,1,1.1-1.252,0.578,0.578,0,0,0,.53-0.573V44.589a0.6,0.6,0,0,0-.18-0.418,0.584,0.584,0,0,0-.43-0.155c-1.82.1-3.99,1.02-3.99,4.818v3a0.911,0.911,0,0,0,.91.907h3.11a0.911,0.911,0,0,0,.91-0.907V49.046A0.912,0.912,0,0,0,1073.63,48.138Zm-0.24,3.448h-2.63V48.834c0-2.649,1.18-3.391,2.3-3.6V45.84c-0.77.235-1.66,0.927-1.66,2.875a0.575,0.575,0,0,0,.57.575h1.42v2.3Zm6.13-3.448h-1.05a1.149,1.149,0,0,1,1.1-1.252,0.578,0.578,0,0,0,.53-0.573V44.589a0.6,0.6,0,0,0-.18-0.418,0.584,0.584,0,0,0-.43-0.155c-1.82.1-3.99,1.02-3.99,4.818v3a0.9,0.9,0,0,0,.9.907h3.12a0.911,0.911,0,0,0,.91-0.907V49.046A0.912,0.912,0,0,0,1079.52,48.138Zm-0.24,3.448h-2.63V48.834c0-2.649,1.18-3.391,2.29-3.6V45.84c-0.77.235-1.65,0.927-1.65,2.875a0.569,0.569,0,0,0,.57.575h1.42v2.3h0Zm3.64-2.921a0.587,0.587,0,0,0-.82,0,0.574,0.574,0,0,0,0,.815,0.581,0.581,0,0,0,.82,0A0.574,0.574,0,0,0,1082.92,48.666Zm2.83-.167h-0.73a0.576,0.576,0,0,0,0,1.151h0.73a9.084,9.084,0,0,1,1.87,17.972,0.574,0.574,0,0,0-.45.563v3.346l-3.55-3.547a0.6,0.6,0,0,0-.41-0.169h-6.47a9.085,9.085,0,0,1-7.95-13.492,0.569,0.569,0,0,0-.22-0.784,0.585,0.585,0,0,0-.79.224,10.244,10.244,0,0,0,8.96,15.2h6.23l4.36,4.363a0.585,0.585,0,0,0,.41.169,0.539,0.539,0,0,0,.22-0.045,0.571,0.571,0,0,0,.36-0.531v-4.28A10.236,10.236,0,0,0,1085.75,48.5Zm2.58,5.736h-14.17a0.576,0.576,0,1,0,0,1.152h14.17A0.576,0.576,0,1,0,1088.33,54.235Zm0,3.072h-14.17a0.576,0.576,0,1,0,0,1.152h14.17A0.576,0.576,0,1,0,1088.33,57.307Zm0,3.072h-14.17a0.575,0.575,0,1,0,0,1.151h14.17A0.575,0.575,0,1,0,1088.33,60.379Zm0,3.07h-7.56a0.575,0.575,0,0,0,0,1.151h7.56A0.575,0.575,0,1,0,1088.33,63.449Zm-10.8,0h-0.01a0.575,0.575,0,0,0,0,1.151h0.01A0.575,0.575,0,1,0,1077.53,63.449Z" transform="translate(-1066.5 -44.031)"/>
</svg>
