<svg xmlns="http://www.w3.org/2000/svg" width="25.75" height="29.563" viewBox="0 0 25.75 29.563">
  <path class="cls-1" d="M883.354,41.162a6.133,6.133,0,0,0-2.211-3.442,6.141,6.141,0,0,0,2.211-3.443l0.821-3.527a0.577,0.577,0,0,0-.394-0.684l-3.465-1.051a6.136,6.136,0,0,0-4.088.193,6.13,6.13,0,0,0-1.876-3.636L871.709,23.1a0.575,0.575,0,0,0-.789,0l-2.643,2.475a6.137,6.137,0,0,0-1.877,3.636,6.106,6.106,0,0,0-1.8-.434,0.577,0.577,0,1,0-.1,1.149,5.01,5.01,0,0,1,1.861.536,6.12,6.12,0,0,0,1.376,3.452l1.685,2.049-0.544-.313a0.577,0.577,0,1,0-.577,1l0.541,0.312-2.613-.435a6.136,6.136,0,0,0-3.678.534,4.965,4.965,0,0,1-2.15-3.044l-0.7-3,0.469-.142a0.578,0.578,0,0,0-.335-1.105l-0.987.3a0.578,0.578,0,0,0-.395.684l0.822,3.528a6.141,6.141,0,0,0,2.211,3.443,6.133,6.133,0,0,0-2.211,3.442l-0.821,3.526a0.576,0.576,0,0,0,.394.684l3.465,1.053a6.149,6.149,0,0,0,4.087-.193,6.131,6.131,0,0,0,1.877,3.634l2.643,2.476a0.576,0.576,0,0,0,.789,0l2.643-2.476a6.125,6.125,0,0,0,1.876-3.634,6.152,6.152,0,0,0,4.088.193l3.465-1.053a0.578,0.578,0,0,0,.4-0.684Zm-3.373-11.044,2.947,0.9-0.7,3a4.971,4.971,0,0,1-2.15,3.044,6.137,6.137,0,0,0-3.678-.534l-2.613.435,0.541-.313a0.577,0.577,0,1,0-.577-1l-0.545.314,1.686-2.049a6.113,6.113,0,0,0,1.376-3.452A4.984,4.984,0,0,1,879.981,30.119Zm-9.306,7.97h0a0.729,0.729,0,0,1-.1-0.368,0.739,0.739,0,0,1,.094-0.361l0.006-.008a0.02,0.02,0,0,0,0-.005,0.736,0.736,0,0,1,.628-0.365h0.017a0.736,0.736,0,0,1,.628.365,0.02,0.02,0,0,0,0,.005l0.006,0.008a0.75,0.75,0,0,1,.094.361,0.729,0.729,0,0,1-.1.368h0A0.737,0.737,0,0,1,870.675,38.089ZM867.5,30.031a4.974,4.974,0,0,1,1.568-3.616l2.248-2.1,2.249,2.1A4.954,4.954,0,0,1,874,33.18l-2.11,2.563v-1.17a0.578,0.578,0,1,0-1.155,0v1.17l-2.11-2.563A4.967,4.967,0,0,1,867.5,30.031Zm-4.85,15.288-2.947-.894,0.7-3a4.955,4.955,0,0,1,5.638-3.762l3.276,0.545-1.014.586a0.577,0.577,0,0,0,.577,1l1.014-.586-1.165,3.11A4.956,4.956,0,0,1,862.648,45.319Zm10.915,3.706-2.249,2.1-2.248-2.1a4.978,4.978,0,0,1-1.562-3.385,6.128,6.128,0,0,0,2.3-2.917l0.93-2.482v1.25a0.577,0.577,0,1,0,1.155,0v-1.25l0.93,2.482a6.122,6.122,0,0,0,2.3,2.917A4.978,4.978,0,0,1,873.563,49.026Zm6.418-3.706a4.956,4.956,0,0,1-6.078-3l-1.165-3.11,1.014,0.586a0.577,0.577,0,0,0,.577-1l-1.014-.586,3.275-.545a4.955,4.955,0,0,1,5.639,3.762l0.7,3Zm-8.674-2.1a0.579,0.579,0,0,0-.408.987,0.578,0.578,0,0,0,.816-0.818A0.586,0.586,0,0,0,871.307,43.223Zm-9.1-13a0.574,0.574,0,1,0-.408-0.168A0.581,0.581,0,0,0,862.209,30.227Z" transform="translate(-858.438 -22.938)"/>
</svg>
