<svg xmlns="http://www.w3.org/2000/svg" width="22.32" height="42.22" viewBox="0 0 22.32 42.22">
  <metadata><?xpacket begin="﻿" id="W5M0MpCehiHzreSzNTczkc9d"?>
<x:xmpmeta xmlns:x="adobe:ns:meta/" x:xmptk="Adobe XMP Core 5.6-c142 79.160924, 2017/07/13-01:06:39        ">
   <rdf:RDF xmlns:rdf="http://www.w3.org/1999/02/22-rdf-syntax-ns#">
      <rdf:Description rdf:about=""/>
   </rdf:RDF>
</x:xmpmeta>
                                                                                                    
                                                                                                    
                                                                                                    
                                                                                                    
                                                                                                    
                                                                                                    
                                                                                                    
                                                                                                    
                                                                                                    
                                                                                                    
                                                                                                    
                                                                                                    
                                                                                                    
                                                                                                    
                                                                                                    
                                                                                                    
                                                                                                    
                                                                                                    
                                                                                                    
                                                                                                    
                           
<?xpacket end="w"?></metadata>
<defs>
    <style>
      .cls-1 {
        fill: #e8c853;
        fill-rule: evenodd;
      }
    </style>
  </defs>
  <path id="Rounded_Rectangle_5_copy_4" data-name="Rounded Rectangle 5 copy 4" class="cls-1" d="M1937.94,3900.75l0.71-.71a0.483,0.483,0,0,1,.7,0l20.61,20.61a0.483,0.483,0,0,1,0,.7l-0.71.71a0.483,0.483,0,0,1-.7,0l-20.61-20.61A0.483,0.483,0,0,1,1937.94,3900.75Zm0,39.8,20.61-20.61a0.483,0.483,0,0,1,.7,0l0.71,0.71a0.483,0.483,0,0,1,0,.7l-20.61,20.61a0.483,0.483,0,0,1-.7,0l-0.71-.71A0.483,0.483,0,0,1,1937.94,3940.55Z" transform="translate(-1937.81 -3899.91)"/>
</svg>
